<svg viewBox="0 0 48 48" fill="none" xmlns="http://www.w3.org/2000/svg">
<defs>
    <linearGradient id="myGradient" gradientTransform="rotate(90)">
      <stop offset="25%" stop-color="rgba(0, 128, 0, 0.5)" />
      <stop offset="95%" stop-color="rgba(0, 128, 0,1)" />
    </linearGradient>
  </defs>
<g id="SVGRepo_bgCarrier" stroke-width="0"></g><g id="SVGRepo_tracerCarrier" stroke-linecap="round" stroke-linejoin="round"></g><g id="SVGRepo_iconCarrier"> <rect width="48" height="48" fill="url('#myGradient')" fill-opacity="0.01"></rect> <path d="M19 20C22.866 20 26 16.866 26 13C26 9.13401 22.866 6 19 6C15.134 6 12 9.13401 12 13C12 16.866 15.134 20 19 20Z" fill="url('#myGradient')" stroke="#000000" stroke-width="4" stroke-linecap="round" stroke-linejoin="round"></path> <path d="M4 40.8V42H34V40.8C34 36.3196 34 34.0794 33.1281 32.3681C32.3611 30.8628 31.1372 29.6389 29.6319 28.8719C27.9206 28 25.6804 28 21.2 28H16.8C12.3196 28 10.0794 28 8.36808 28.8719C6.86278 29.6389 5.63893 30.8628 4.87195 32.3681C4 34.0794 4 36.3196 4 40.8Z" fill="url('#myGradient')" stroke="#000000" stroke-width="4" stroke-linecap="round" stroke-linejoin="round"></path> <path fill-rule="evenodd" clip-rule="evenodd" d="M38 13V25V13Z" fill="url('#myGradient')"></path> <path fill-rule="evenodd" clip-rule="evenodd" d="M32 19H44H32Z" fill="url('#myGradient')"></path> <path d="M38 13V25M32 19H44" stroke="#000000" stroke-width="4" stroke-linecap="round" stroke-linejoin="round"></path> </g></svg>